<mxfile host="app.diagrams.net" modified="2023-10-24T12:10:31.262Z" agent="Mozilla/5.0 (Windows NT 10.0; Win64; x64) AppleWebKit/537.36 (KHTML, like Gecko) Chrome/118.0.0.0 Safari/537.36 Edg/118.0.2088.61" version="22.0.6" etag="nZ-EJBn8gb1V15VxyJIk" type="github">
  <diagram name="第 1 页" id="Q91m0AD_tdK-hl1R9hOg">
    <mxGraphModel>
      <root>
        <mxCell id="0" />
        <mxCell id="1" parent="0" />
      </root>
    </mxGraphModel>
  </diagram>
</mxfile>
